<?xml version="1.0" standalone="no"?>
<!DOCTYPE svg PUBLIC "-//W3C//DTD SVG 20010904//EN"
 "http://www.w3.org/TR/2001/REC-SVG-20010904/DTD/svg10.dtd">
<svg version="1.0" xmlns="http://www.w3.org/2000/svg"
 width="256.000000pt" height="56.000000pt" viewBox="0 0 256.000000 56.000000"
 preserveAspectRatio="xMidYMid meet">

<g transform="translate(0.000000,56.000000) scale(0.100000,-0.100000)"
fill="#000000" stroke="none">
<path d="M0 280 l0 -280 1280 0 1280 0 0 280 0 280 -1280 0 -1280 0 0 -280z
m402 210 c169 -47 195 -308 38 -387 -38 -20 -60 -23 -155 -23 -73 0 -115 4
-123 12 -7 7 -12 38 -12 70 l0 57 -62 3 -63 3 -3 53 c-4 70 7 82 74 82 l54 0
0 60 c0 46 4 61 18 69 22 14 187 14 234 1z m1868 -35 c0 -3 -10 -21 -22 -40
-15 -23 -31 -35 -45 -35 -27 0 -27 0 -6 45 13 28 22 35 45 35 15 0 28 -2 28
-5z m-1465 -26 c102 -28 145 -141 94 -247 -31 -62 -81 -84 -186 -80 l-78 3 -3
133 c-2 74 -1 149 3 168 l6 34 62 0 c34 0 80 -5 102 -11z m945 -4 c32 -16 70
-61 70 -81 0 -23 -65 -18 -81 6 -8 11 -28 23 -46 26 -27 5 -37 1 -63 -24 -26
-27 -30 -37 -30 -87 0 -46 4 -60 25 -80 31 -32 86 -34 115 -5 31 31 26 50 -15
50 -31 0 -35 3 -35 25 0 24 2 25 70 25 l70 0 0 -37 c0 -51 -28 -103 -68 -126
-45 -27 -121 -25 -165 2 -81 50 -99 185 -35 266 40 52 129 71 188 40z m-597
-87 c56 -29 74 -130 34 -189 -46 -68 -153 -71 -201 -6 -29 39 -29 125 0 164
35 48 109 61 167 31z m252 12 c22 0 75 -50 75 -71 0 -26 -51 -26 -75 1 -37 41
-85 11 -85 -53 0 -66 54 -103 82 -57 15 24 78 29 78 6 0 -41 -84 -94 -128 -79
-56 17 -75 29 -87 54 -19 36 -19 112 -1 147 19 37 79 66 114 56 8 -2 20 -4 27
-4z m1068 -12 c28 -14 37 -51 37 -149 l0 -89 -35 0 c-26 0 -35 4 -35 17 0 15
-2 15 -19 -1 -22 -20 -78 -24 -110 -7 -24 13 -36 50 -27 87 7 28 56 54 103 54
37 0 55 13 47 33 -7 19 -59 24 -69 7 -7 -12 -75 -14 -75 -2 0 4 9 18 18 30 30
38 111 48 165 20z m-523 -71 c0 -87 8 -107 45 -107 37 0 45 20 45 107 l0 83
35 0 35 0 0 -125 0 -125 -35 0 c-26 0 -35 4 -35 17 0 15 -1 15 -18 0 -28 -26
-88 -22 -117 8 -23 22 -25 31 -25 125 l0 100 35 0 35 0 0 -83z m290 -42 l0
-125 -35 0 -35 0 0 125 0 125 35 0 35 0 0 -125z"/>
<path d="M710 264 l0 -107 45 6 c55 6 82 28 91 74 8 44 -11 110 -36 123 -10 5
-37 10 -59 10 l-41 0 0 -106z"/>
<path d="M1049 283 c-8 -9 -14 -35 -14 -58 0 -49 18 -75 51 -75 29 0 54 35 54
75 0 62 -58 99 -91 58z"/>
<path d="M2373 200 c-38 -16 -25 -60 18 -60 14 0 49 39 49 55 0 17 -32 19 -67
5z"/>
</g>
</svg>
