<svg xmlns="http://www.w3.org/2000/svg" style="display: none;">
  <symbol id="inicio-icon" viewBox="0 0 24 24" fill="none" stroke="currentColor" stroke-width="2" stroke-linecap="round" stroke-linejoin="round">
    <path d="M15 21v-8a1 1 0 0 0-1-1h-4a1 1 0 0 0-1 1v8"></path>
    <path d="M3 10a2 2 0 0 1 .709-1.528l7-5.999a2 2 0 0 1 2.582 0l7 5.999A2 2 0 0 1 21 10v9a2 2 0 0 1-2 2H5a2 2 0 0 1-2-2z"></path>
  </symbol>

  <symbol id="calendario-icon" viewBox="0 0 24 24" fill="none" stroke="currentColor" stroke-width="2" stroke-linecap="round" stroke-linejoin="round">
    <path d="M8 2v4"></path>
    <path d="M16 2v4"></path>
    <rect width="18" height="18" x="3" y="4" rx="2"></rect>
    <path d="M3 10h18"></path>
  </symbol>


  <symbol id="consultorios-icon" viewBox="0 0 24 24" fill="none" stroke="currentColor" stroke-width="2" stroke-linecap="round" stroke-linejoin="round">
    <path d="M6 22V4a2 2 0 0 1 2-2h8a2 2 0 0 1 2 2v18Z"></path>
    <path d="M6 12H4a2 2 0 0 0-2 2v6a2 2 0 0 0 2 2h2"></path>
    <path d="M18 9h2a2 2 0 0 1 2 2v9a2 2 0 0 1-2 2h-2"></path>
    <path d="M10 6h4"></path>
    <path d="M10 10h4"></path>
    <path d="M10 14h4"></path>
    <path d="M10 18h4"></path>
  </symbol>

  <symbol id="pacientes-icon" viewBox="0 0 24 24" fill="none" stroke="currentColor" stroke-width="2" stroke-linecap="round" stroke-linejoin="round">
    <path d="M16 21v-2a4 4 0 0 0-4-4H6a4 4 0 0 0-4 4v2"></path>
    <circle cx="9" cy="7" r="4"></circle>
    <path d="M22 21v-2a4 4 0 0 0-3-3.87"></path>
    <path d="M16 3.13a4 4 0 0 1 0 7.75"></path>
  </symbol>

  <symbol id="plantillas-icon" viewBox="0 0 24 24" fill="none" stroke="currentColor" stroke-width="2" stroke-linecap="round" stroke-linejoin="round">
    <path d="M15 2H6a2 2 0 0 0-2 2v16a2 2 0 0 0 2 2h12a2 2 0 0 0 2-2V7Z"></path>
    <path d="M14 2v4a2 2 0 0 0 2 2h4"></path>
    <path d="M10 9H8"></path>
    <path d="M16 13H8"></path>
    <path d="M16 17H8"></path>
  </symbol>

  <symbol id="button-icon" viewBox="0 0 24 24" fill="none" stroke="currentColor" stroke-width="2" stroke-linecap="round" stroke-linejoin="round">
    <rect width="18" height="18" x="3" y="3" rx="2"></rect>
    <path d="M9 3v18"></path>
  </symbol>

  <symbol id="trending-up-icon" viewBox="0 0 24 24" fill="none" stroke="currentColor" stroke-width="2" stroke-linecap="round" stroke-linejoin="round">
    <polyline points="22 7 13.5 15.5 8.5 10.5 2 17"></polyline>
    <polyline points="16 7 22 7 22 13"></polyline>
  </symbol>

  <symbol id="consultas-icon" viewBox="0 0 24 24" fill="none" stroke="currentColor" stroke-width="2" stroke-linecap="round" stroke-linejoin="round">
    <circle cx="12" cy="12" r="10"></circle>
    <polyline points="12 6 12 12 16 14"></polyline>
  </symbol>

  <symbol id="clock-icon" viewBox="0 0 24 24" fill="none" stroke="currentColor" stroke-width="2" stroke-linecap="round" stroke-linejoin="round">
    <circle cx="12" cy="12" r="10"></circle>
    <polyline points="12 6 12 12 16 14"></polyline>
  </symbol>

  <symbol id="location-icon" viewBox="0 0 24 24" fill="none" stroke="currentColor" stroke-width="2" stroke-linecap="round" stroke-linejoin="round">
    <path d="M20 10c0 4.993-5.539 10.193-7.399 11.799a1 1 0 0 1-1.202 0C9.539 20.193 4 14.993 4 10a8 8 0 0 1 16 0"></path>
    <circle cx="12" cy="10" r="3"></circle>
  </symbol>

  <symbol id="users-icon" viewBox="0 0 24 24" fill="none" stroke="currentColor" stroke-width="2" stroke-linecap="round" stroke-linejoin="round">
    <path d="M16 21v-2a4 4 0 0 0-4-4H6a4 4 0 0 0-4 4v2"></path>
    <circle cx="9" cy="7" r="4"></circle>
    <path d="M22 21v-2a4 4 0 0 0-3-3.87"></path>
    <path d="M16 3.13a4 4 0 0 1 0 7.75"></path>
  </symbol>

</svg> 